HIERARCHY
ROOT Hips
{
    OFFSET   0.000000   0.000000   0.000000
    CHANNELS 6 Xposition Yposition Zposition Zrotation Xrotation Yrotation
    JOINT Chest
    {
        OFFSET   0.000000   8.007230   0.000000
        CHANNELS 3 Zrotation Xrotation Yrotation
        JOINT Chest2
        {
            OFFSET   0.000000  22.077100   0.000000
            CHANNELS 3 Zrotation Xrotation Yrotation
            JOINT Neck
            {
                OFFSET   0.000000  23.255100   0.000000
                CHANNELS 3 Zrotation Xrotation Yrotation
                JOINT Head
                {
                    OFFSET   0.000000  14.370100   1.956600
                    CHANNELS 3 Zrotation Xrotation Yrotation
                    End Site
                    {
                        OFFSET   0.000000  19.566000   0.000000
                    }
                }
            }
            JOINT LeftCollar
            {
                OFFSET   3.911900  19.017000  -0.467063
                CHANNELS 3 Zrotation Xrotation Yrotation
                JOINT LeftShoulder
                {
                    OFFSET  10.383700   0.000000   0.000000
                    CHANNELS 3 Zrotation Xrotation Yrotation
                    JOINT LeftElbow
                    {
                        OFFSET  26.662100   0.001193   0.000980
                        CHANNELS 3 Zrotation Xrotation Yrotation
                        JOINT LeftWrist
                        {
                            OFFSET  28.869000  -0.000059  -0.000082
                            CHANNELS 3 Zrotation Xrotation Yrotation
                            JOINT LeftFinger0
                            {
                                OFFSET   2.044650  -2.323450   3.252850
                                CHANNELS 3 Zrotation Xrotation Yrotation
                                JOINT LeftFinger01
                                {
                                    OFFSET   3.088130   0.000000   0.000000
                                    CHANNELS 3 Zrotation Xrotation Yrotation
                                    JOINT LeftFinger02
                                    {
                                        OFFSET   2.639460   0.000000   0.000000
                                        CHANNELS 3 Zrotation Xrotation Yrotation
                                        End Site
                                        {
                                            OFFSET   2.582190   0.000000   0.000000
                                        }
                                    }
                                }
                            }
                            JOINT LeftFinger1
                            {
                                OFFSET   8.364480   0.000000   3.252850
                                CHANNELS 3 Zrotation Xrotation Yrotation
                                JOINT LeftFinger11
                                {
                                    OFFSET   4.646930   0.000000   0.000000
                                    CHANNELS 3 Zrotation Xrotation Yrotation
                                    JOINT LeftFinger12
                                    {
                                        OFFSET   2.323470   0.000000   0.000000
                                        CHANNELS 3 Zrotation Xrotation Yrotation
                                        End Site
                                        {
                                            OFFSET   2.273050   0.000000   0.000000
                                        }
                                    }
                                }
                            }
                            JOINT LeftFinger2
                            {
                                OFFSET   8.364490   0.000016   1.078090
                                CHANNELS 3 Zrotation Xrotation Yrotation
                                JOINT LeftFinger21
                                {
                                    OFFSET   5.111610   0.000000   0.000000
                                    CHANNELS 3 Zrotation Xrotation Yrotation
                                    JOINT LeftFinger22
                                    {
                                        OFFSET   2.788150   0.000016   0.000000
                                        CHANNELS 3 Zrotation Xrotation Yrotation
                                        End Site
                                        {
                                            OFFSET   2.727660   0.000000   0.000000
                                        }
                                    }
                                }
                            }
                            JOINT LeftFinger3
                            {
                                OFFSET   7.899780   0.000015  -1.078090
                                CHANNELS 3 Zrotation Xrotation Yrotation
                                JOINT LeftFinger31
                                {
                                    OFFSET   4.646930   0.000000   0.000000
                                    CHANNELS 3 Zrotation Xrotation Yrotation
                                    JOINT LeftFinger32
                                    {
                                        OFFSET   2.323470   0.000000   0.000000
                                        CHANNELS 3 Zrotation Xrotation Yrotation
                                        End Site
                                        {
                                            OFFSET   2.273050   0.000000   0.000000
                                        }
                                    }
                                }
                            }
                            JOINT LeftFinger4
                            {
                                OFFSET   7.435090   0.000000  -3.252850
                                CHANNELS 3 Zrotation Xrotation Yrotation
                                JOINT LeftFinger41
                                {
                                    OFFSET   3.717550   0.000000   0.000000
                                    CHANNELS 3 Zrotation Xrotation Yrotation
                                    JOINT LeftFinger42
                                    {
                                        OFFSET   1.858770   0.000000   0.000000
                                        CHANNELS 3 Zrotation Xrotation Yrotation
                                        End Site
                                        {
                                            OFFSET   1.818440   0.000000   0.000000
                                        }
                                    }
                                }
                            }
                        }
                    }
                }
            }
            JOINT RightCollar
            {
                OFFSET  -3.911910  19.017000  -0.467062
                CHANNELS 3 Zrotation Xrotation Yrotation
                JOINT RightShoulder
                {
                    OFFSET -10.383700   0.000014   0.000000
                    CHANNELS 3 Zrotation Xrotation Yrotation
                    JOINT RightElbow
                    {
                        OFFSET -26.662100   0.001225   0.001091
                        CHANNELS 3 Zrotation Xrotation Yrotation
                        JOINT RightWrist
                        {
                            OFFSET -28.869000  -0.000020  -0.000085
                            CHANNELS 3 Zrotation Xrotation Yrotation
                            JOINT RightFinger0
                            {
                                OFFSET  -2.044650  -2.323490   3.252850
                                CHANNELS 3 Zrotation Xrotation Yrotation
                                JOINT RightFinger01
                                {
                                    OFFSET  -3.088130   0.000000   0.000000
                                    CHANNELS 3 Zrotation Xrotation Yrotation
                                    JOINT RightFinger02
                                    {
                                        OFFSET  -2.639460   0.000000   0.000000
                                        CHANNELS 3 Zrotation Xrotation Yrotation
                                        End Site
                                        {
                                            OFFSET  -2.582190   0.000000   0.000000
                                        }
                                    }
                                }
                            }
                            JOINT RightFinger1
                            {
                                OFFSET  -8.364480   0.000000   3.252850
                                CHANNELS 3 Zrotation Xrotation Yrotation
                                JOINT RightFinger11
                                {
                                    OFFSET  -4.646930   0.000000   0.000000
                                    CHANNELS 3 Zrotation Xrotation Yrotation
                                    JOINT RightFinger12
                                    {
                                        OFFSET  -2.323470   0.000000   0.000000
                                        CHANNELS 3 Zrotation Xrotation Yrotation
                                        End Site
                                        {
                                            OFFSET  -2.273050   0.000000   0.000000
                                        }
                                    }
                                }
                            }
                            JOINT RightFinger2
                            {
                                OFFSET  -8.364480   0.000000   1.078090
                                CHANNELS 3 Zrotation Xrotation Yrotation
                                JOINT RightFinger21
                                {
                                    OFFSET  -5.111620   0.000000   0.000000
                                    CHANNELS 3 Zrotation Xrotation Yrotation
                                    JOINT RightFinger22
                                    {
                                        OFFSET  -2.788160   0.000000   0.000000
                                        CHANNELS 3 Zrotation Xrotation Yrotation
                                        End Site
                                        {
                                            OFFSET  -2.727660   0.000000   0.000000
                                        }
                                    }
                                }
                            }
                            JOINT RightFinger3
                            {
                                OFFSET  -7.899780   0.000000  -1.078090
                                CHANNELS 3 Zrotation Xrotation Yrotation
                                JOINT RightFinger31
                                {
                                    OFFSET  -4.646930   0.000000   0.000000
                                    CHANNELS 3 Zrotation Xrotation Yrotation
                                    JOINT RightFinger32
                                    {
                                        OFFSET  -2.323470   0.000000   0.000000
                                        CHANNELS 3 Zrotation Xrotation Yrotation
                                        End Site
                                        {
                                            OFFSET  -2.273050   0.000000   0.000000
                                        }
                                    }
                                }
                            }
                            JOINT RightFinger4
                            {
                                OFFSET  -7.435090   0.000000  -3.252850
                                CHANNELS 3 Zrotation Xrotation Yrotation
                                JOINT RightFinger41
                                {
                                    OFFSET  -3.717550   0.000000   0.000000
                                    CHANNELS 3 Zrotation Xrotation Yrotation
                                    JOINT RightFinger42
                                    {
                                        OFFSET  -1.858760   0.000000   0.000000
                                        CHANNELS 3 Zrotation Xrotation Yrotation
                                        End Site
                                        {
                                            OFFSET  -1.818440   0.000000   0.000000
                                        }
                                    }
                                }
                            }
                        }
                    }
                }
            }
        }
    }
    JOINT LeftHip
    {
        OFFSET   9.783030   0.000000   0.000000
        CHANNELS 3 Zrotation Xrotation Yrotation
        JOINT LeftKnee
        {
            OFFSET   0.000063 -41.789100   0.000608
            CHANNELS 3 Zrotation Xrotation Yrotation
            JOINT LeftAnkle
            {
                OFFSET   0.000048 -41.133200  -0.000184
                CHANNELS 3 Zrotation Xrotation Yrotation
                JOINT LeftToe
                {
                    OFFSET   0.000000  -6.358960  14.674500
                    CHANNELS 3 Zrotation Xrotation Yrotation
                    End Site
                    {
                        OFFSET   0.000000   0.000000   3.913200
                    }
                }
            }
        }
    }
    JOINT RightHip
    {
        OFFSET  -9.783030   0.000000   0.000000
        CHANNELS 3 Zrotation Xrotation Yrotation
        JOINT RightKnee
        {
            OFFSET   0.000071 -41.789100   0.001239
            CHANNELS 3 Zrotation Xrotation Yrotation
            JOINT RightAnkle
            {
                OFFSET   0.000037 -41.133200  -0.000166
                CHANNELS 3 Zrotation Xrotation Yrotation
                JOINT RightToe
                {
                    OFFSET   0.000000  -6.358960  14.674500
                    CHANNELS 3 Zrotation Xrotation Yrotation
                    End Site
                    {
                        OFFSET   0.000000   0.000000   3.913200
                    }
                }
            }
        }
    }
}
MOTION
Frames: 6
Frame Time:   0.016667
 -0.062468  89.021100   5.092840   5.335720 -19.464700  11.697100  -1.738170  12.868900   2.411920  -4.213150  25.641000   5.449030  -0.612573  -4.505040  -0.048740  -1.032150  -9.129120 -12.810600  -8.057240  -8.798060   8.628280 -67.485100   7.520160  -2.807510   2.632040  -4.629370  -7.868020  16.979800 -15.849500  10.181300  37.338600  34.444000 -47.662600 -37.843800   0.002394   0.001916 -15.334200   0.007993  -0.005131 -43.550700  -3.047580   3.199780 -35.702800   0.001799   0.002355 -25.719700  -0.004519   0.002510 -36.927700  -3.545830   4.707290 -54.111600  -0.003993   0.003325 -36.337300  -0.000160  -0.005219 -31.961400  -5.124810   8.146270 -48.490200   0.001511   0.003567 -32.294200  -0.004666   0.003717 -39.086900  -6.101440   7.454450 -59.226400  -0.015398   0.000131 -39.444800  -0.002486  -0.001526   0.310340  -4.049430  10.294600  52.407000 -10.869700  44.213100 -13.554500  -9.348810  61.297000   3.847740 -29.398500  16.464800 -59.040600  54.333300 108.293000 -15.683500   0.000500   0.000188 -12.841700   0.000239   0.004109  46.382000  -0.869516  -0.828892  37.955300  -0.022171  -0.000778  27.870800  -0.002163  -0.008296  38.429200  -2.730840  -3.450160  54.228000  -0.021973   0.000616  36.814100  -0.003913   0.000636  41.053700  -5.684760  -6.491300  54.395600  -0.007342  -0.002688  37.692500  -0.001436   0.003267  56.718800  -7.246600  -4.746030  85.527800  -0.001519   0.013806  56.961500  -0.002628   0.001236  -0.784981  18.586000  -2.656500   2.485730  10.219900   8.039960  -7.473030  -7.111970  -6.523970  -0.000000   0.000000  -0.000000  -1.468900  19.595100  -6.770660   0.447873  12.499300 -20.159600   1.320680 -11.156400  -3.807850   0.000000   0.000000   0.000000
 -0.167268  89.066600   5.203270   5.723310 -19.176900  13.084800  -1.865470  12.913200   2.734100  -4.559770  25.709400   6.153890  -0.690452  -4.888130  -0.059909  -1.167710  -9.903890 -14.064700  -8.165290  -9.418570   8.515580 -66.355600   6.248010  -1.642240   2.675720  -4.624040  -8.639300  16.642400 -16.652500   9.590530  37.677700  34.904800 -47.472500 -37.628000   0.002397   0.001890 -15.176500   0.007993  -0.005134 -43.450600  -3.058020   3.222010 -35.621800   0.001800   0.002352 -25.643600  -0.004521   0.002508 -37.161800  -3.551760   4.676330 -54.133900  -0.003994   0.003316 -36.416700  -0.000161  -0.005222 -31.962200  -5.125910   8.147480 -48.490500   0.001510   0.003574 -32.294700  -0.004665   0.003706 -39.176500  -6.109640   7.443040 -59.360400  -0.015715  -0.000059 -39.534100  -0.002207  -0.001522  -0.299357  -4.414670   9.971720  51.564000 -12.486700  45.325900 -14.096800  -9.241340  58.901900   4.453850 -29.817600  16.855200 -59.040700  54.333300 108.293000 -15.678500   0.000861   0.000306 -12.839200   0.000258   0.004181  46.638000  -0.805000  -0.761155  38.165100  -0.022485  -0.000740  28.074500  -0.003657  -0.008299  38.806200  -2.477130  -3.096740  54.259300  -0.028013   0.000618  36.931400  -0.003907   0.000636  41.409100  -5.713510  -6.444560  54.413600  -0.017341  -0.002688  37.799200  -0.001415   0.003267  56.981300  -7.336480  -4.744230  85.928900  -0.007979   0.013756  57.228700  -0.002608   0.006673  -0.620597  18.506900  -2.490530   2.675800   9.843030   7.037350  -7.687590  -6.749660  -7.015520   0.000000   0.000000  -0.000000  -1.348180  19.787800  -6.826180   0.732696  12.011700 -21.293300   1.166360 -10.981200  -3.949950  -0.000000   0.000000   0.000000
 -0.256890  89.120500   5.304960   6.077250 -18.921100  14.349400  -1.985810  13.000100   3.096340  -4.903500  25.858100   6.944310  -0.787533  -5.299670  -0.074380  -1.334940 -10.737500 -15.416200  -8.275750 -10.115700   8.308950 -65.336300   4.821910  -0.561415   2.736210  -4.446700  -9.426840  16.688200 -17.460700   9.192500  38.076900  35.557800 -47.309100 -37.388000   0.002400   0.001885 -15.010400   0.007994  -0.005134 -43.307200  -3.074020   3.255320 -35.505600   0.001801   0.002348 -25.534700  -0.004523   0.002515 -37.478300  -3.557980   4.631980 -54.162300  -0.003994   0.003324 -36.522600  -0.000159  -0.005217 -32.010300  -5.128690   8.137550 -48.561300   0.001508   0.003572 -32.342000  -0.004667   0.003704 -39.318600  -6.122910   7.422090 -59.572800  -0.014964  -0.000275 -39.675500  -0.001921  -0.001532  -0.823824  -5.013980   9.640360  50.232800 -13.817600  46.273300 -14.851300  -9.236020  56.077700   4.902750 -30.396000  17.278900 -59.040600  54.333300 108.293000 -15.770900   0.001246   0.000446 -12.885500   0.000272   0.004258  46.802400  -0.783872  -0.736412  38.299400  -0.019903  -0.000704  28.203900  -0.002404  -0.008299  38.823100  -2.210420  -2.743440  54.270100  -0.024156   0.000612  36.930100  -0.003902   0.000641  41.257700  -5.706200  -6.471560  54.409500  -0.018717  -0.002686  37.758400  -0.001403   0.003275  56.951400  -7.375430  -4.762910  85.891200  -0.011918   0.013423  57.203600  -0.002603   0.010418  -0.453340  18.483100  -2.282020   2.820840   9.449300   6.129720  -7.889600  -6.401100  -7.523200   0.000000   0.000000  -0.000000  -1.241470  19.957300  -6.827650   0.990509  11.581600 -22.333500   1.020500 -10.800900  -4.102080  -0.000000   0.000000   0.000000
 -0.338419  89.177200   5.390960   6.397740 -18.682200  15.487700  -2.096360  13.111100   3.497330  -5.248310  26.051400   7.817150  -0.897969  -5.718990  -0.091416  -1.526080 -11.586700 -16.847700  -8.402660 -10.855000   8.036960 -64.406300   3.495760   0.356211   2.848790  -4.180570 -10.101000  16.886600 -18.202100   8.858080  38.662800  36.379300 -47.328800 -37.172400   0.002401   0.001882 -14.865200   0.007995  -0.005134 -43.180500  -3.088900   3.285920 -35.402400   0.001802   0.002344 -25.437800  -0.004525   0.002521 -37.863200  -3.563550   4.575610 -54.194500  -0.003993   0.003332 -36.649400  -0.000158  -0.005212 -32.114400  -5.133110   8.114330 -48.716700   0.001507   0.003570 -32.445300  -0.004670   0.003704 -39.498900  -6.136300   7.391110 -59.841900  -0.012765  -0.000491 -39.854700  -0.001636  -0.001541  -1.250570  -5.786560   9.364060  48.089400 -14.957000  47.153100 -15.454800  -9.501310  52.482400   5.289720 -31.054500  17.650000 -59.040600  54.333300 108.293000 -15.863300   0.001653   0.000590 -12.931700   0.000286   0.004336  46.883300  -0.760145  -0.713091  38.364900  -0.014816  -0.000669  28.266700  -0.000575  -0.008300  38.767200  -1.957600  -2.435860  54.272500  -0.016947   0.000606  36.921200  -0.003884   0.000645  40.627000  -5.663920  -6.569980  54.380700  -0.018914  -0.002684  37.570100  -0.001390   0.003283  56.773400  -7.388200  -4.817160  85.627200  -0.013777   0.011912  57.027700  -0.002599   0.012326  -0.293743  18.435000  -2.056010   2.926500   9.110780   5.314830  -8.077210  -6.071700  -8.016700  -0.000000   0.000000   0.000000  -1.146820  20.090900  -6.827610   1.210060  11.205300 -23.207800   0.887743 -10.618300  -4.291420   0.000000   0.000000  -0.000000
 -0.419358  89.232400   5.449980   6.671470 -18.449600  16.469300  -2.195860  13.236700   3.952460  -5.580390  26.269500   8.802390  -1.031470  -6.135730  -0.111915  -1.755680 -12.428500 -18.378400  -8.568160 -11.624900   7.674170 -63.630900   2.547480   1.010100   3.058260  -3.983490 -10.497200  17.310400 -18.873500   8.520740  39.364000  37.390100 -47.811900 -37.005900   0.002400   0.001870 -14.749100   0.007994  -0.005132 -43.135600  -3.095480   3.298500 -35.365300   0.001803   0.002356 -25.402900  -0.004521   0.002515 -38.346400  -3.566940   4.500090 -54.231000  -0.003991   0.003322 -36.805300  -0.000158  -0.005213 -32.260400  -5.139990   8.079470 -48.934400   0.001510   0.003568 -32.590300  -0.004667   0.003703 -39.735100  -6.149670   7.344930 -60.194100  -0.008446  -0.000709 -40.089300  -0.001364  -0.001533  -1.479360  -6.784680   9.229730  44.478300 -15.913100  48.061300 -15.626600 -10.296500  47.528400   5.194850 -31.767400  17.882300 -59.040600  54.333300 108.293000 -15.855000   0.002207   0.000751 -12.927600   0.000302   0.004434  46.506300  -0.672072  -0.637846  38.055000  -0.007378  -0.000637  27.966400   0.000474  -0.008294  37.888100  -1.751400  -2.251180  54.196900  -0.007402   0.000608  36.631800  -0.003166   0.000643  39.125300  -5.551690  -6.790040  54.290600  -0.009233  -0.002684  37.104900  -0.001366   0.003277  56.073700  -7.337090  -4.919130  84.581200  -0.008118   0.007497  56.331000  -0.002586   0.007562  -0.143518  18.261600  -1.842470   2.990130   8.923640   4.643690  -8.248490  -5.772990  -8.496720   0.000000   0.000000  -0.000000  -1.078540  20.169200  -6.864590   1.367400  10.894500 -23.804200   0.784446 -10.442700  -4.547520   0.000000   0.000000  -0.000000
 -0.492531  89.284400   5.492470   6.908140 -18.223600  17.334200  -2.306910  13.363200   4.448140  -5.956180  26.482100   9.878090  -1.152770  -6.542970  -0.132057  -1.968420 -13.249900 -19.959900  -8.728110 -12.388000   7.295900 -62.919200   1.919610   1.462760   3.263520  -3.875430 -10.701100  17.789400 -19.233200   8.123600  39.926600  38.356600 -48.526300 -36.927000   0.002398   0.001862 -14.693300   0.007994  -0.005130 -43.129100  -3.097170   3.301190 -35.360000   0.001803   0.002367 -25.397900  -0.004517   0.002505 -38.828400  -3.569340   4.424340 -54.265600  -0.003988   0.003312 -36.959200  -0.000159  -0.005215 -32.419400  -5.147410   8.041280 -49.171600   0.001514   0.003566 -32.748300  -0.004663   0.003702 -39.973000  -6.161380   7.296530 -60.548800  -0.004140  -0.000923 -40.325500  -0.001109  -0.001525  -1.654610  -7.797430   9.135440  40.152800 -16.698500  48.861200 -15.770900 -11.315200  41.754800   4.731360 -32.582400  18.062000 -59.040600  54.333300 108.293000 -15.797100   0.002550   0.000846 -12.898500   0.000322   0.004494  45.858600  -0.547842  -0.529458  37.523500  -0.002445  -0.000599  27.452900   0.000947  -0.008286  36.659300  -1.557760  -2.087720  54.014500  -0.001207   0.000612  36.178400  -0.002184   0.000641  37.576600  -5.433790  -7.015800  54.188100   0.000448  -0.002685  36.619700  -0.001340   0.003271  55.240800  -7.285860  -5.030440  83.340900  -0.002348   0.003943  55.505000  -0.002570   0.002792  -0.023767  18.035200  -1.642250   3.041210   8.817450   4.059150  -8.404080  -5.504090  -8.934440  -0.000000   0.000000   0.000000  -1.036630  20.195200  -6.925500   1.506480  10.652100 -24.204900   0.697452 -10.273900  -4.850390  -0.000000   0.000000   0.000000
